<?xml version="1.0" standalone="no"?>
<!DOCTYPE svg PUBLIC "-//W3C//DTD SVG 20010904//EN"
 "http://www.w3.org/TR/2001/REC-SVG-20010904/DTD/svg10.dtd">
<svg version="1.0" xmlns="http://www.w3.org/2000/svg"
 width="180.000000pt" height="180.000000pt" viewBox="0 0 180.000000 180.000000"
 preserveAspectRatio="xMidYMid meet">

<g transform="translate(0.000000,180.000000) scale(0.100000,-0.100000)"
fill="#000000" stroke="none">
<path d="M533 1518 c-28 -31 -83 -300 -67 -326 10 -15 37 -17 286 -20 l275 -2
-34 -163 c-47 -227 -69 -312 -89 -343 -20 -29 -69 -54 -107 -54 -34 0 -74 35
-82 70 -13 59 -17 60 -245 60 l-210 0 -16 -25 c-23 -35 -15 -135 15 -197 49
-101 178 -193 331 -234 87 -24 297 -24 394 -1 105 26 191 72 254 136 55 54
117 157 141 231 16 51 181 821 181 846 0 44 1 44 -515 44 l-492 0 -20 -22z"/>
</g>
</svg>
